<svg xmlns="http://www.w3.org/2000/svg" viewBox="0 0 23.42 24"><defs><style>.cls-1{fill:#fff;}</style></defs><title>Asset 1</title><g id="Layer_2" data-name="Layer 2"><g id="Layer_1-2" data-name="Layer 1"><path class="cls-1" d="M10.79,11.25A1.69,1.69,0,1,1,9.1,12.94a1.69,1.69,0,0,1,1.69-1.69m0-.94a2.63,2.63,0,1,0,2.63,2.63,2.63,2.63,0,0,0-2.63-2.63Z"/><path class="cls-1" d="M7.37.94A2.87,2.87,0,1,1,4.5,3.81,2.87,2.87,0,0,1,7.37.94m0-.94a3.81,3.81,0,1,0,3.8,3.81A3.81,3.81,0,0,0,7.37,0Z"/><path class="cls-1" d="M20.41,2.73A2.07,2.07,0,1,1,18.34,4.8a2.07,2.07,0,0,1,2.07-2.07m0-.94a3,3,0,1,0,3,3,3,3,0,0,0-3-3Z"/><path class="cls-1" d="M18,17.74a1,1,0,1,1-.95,1,.95.95,0,0,1,.95-1m0-.94a1.9,1.9,0,1,0,1.89,1.89A1.89,1.89,0,0,0,18,16.8Z"/><path class="cls-1" d="M2.29,20.36A1.35,1.35,0,1,1,.94,21.71a1.34,1.34,0,0,1,1.35-1.35m0-.94a2.29,2.29,0,1,0,2.29,2.29,2.29,2.29,0,0,0-2.29-2.29Z"/><path class="cls-1" d="M3.74,20.4a.49.49,0,0,1-.34-.14.48.48,0,0,1,0-.67l4.53-4.35a.47.47,0,0,1,.67,0,.46.46,0,0,1,0,.66L4.06,20.27A.44.44,0,0,1,3.74,20.4Z"/><path class="cls-1" d="M16.5,18a.42.42,0,0,1-.28-.1l-2.89-2.19a.47.47,0,1,1,.57-.75l2.89,2.2a.47.47,0,0,1-.29.84Z"/><path class="cls-1" d="M9.42,10A.48.48,0,0,1,9,9.76L8,7.65a.47.47,0,0,1,.85-.39l1,2.11a.46.46,0,0,1-.23.62A.45.45,0,0,1,9.42,10Z"/><path class="cls-1" d="M13.65,11.13A.46.46,0,0,1,13.3,11a.46.46,0,0,1,0-.66l4.51-3.85a.47.47,0,0,1,.61.71L14,11A.51.51,0,0,1,13.65,11.13Z"/></g></g></svg>